<?xml version="1.0" encoding="UTF-8"?>
<svg width="512px" height="512px" viewBox="0 0 512 512" version="1.1" xmlns="http://www.w3.org/2000/svg" xmlns:xlink="http://www.w3.org/1999/xlink">
    <!-- Generator: Sketch 63.1 (92452) - https://sketch.com -->
    <title>Icon Deuna! - Android</title>
    <desc>Created with Sketch.</desc>
    <g id="Icon-Deuna!---Android" stroke="none" stroke-width="1" fill="none" fill-rule="evenodd">
        <rect id="Background" fill="#3F2A56" x="0" y="0" width="512" height="512" rx="115"></rect>
        <path d="M331.557431,338.930624 C346.497707,338.930624 358.610445,351.033469 358.610445,365.966399 C358.610445,380.897154 346.497707,393 331.557431,393 C316.617156,393 304.504418,380.897154 304.504418,365.966399 C304.504418,351.033469 316.617156,338.930624 331.557431,338.930624 Z M312.776707,118.368433 L272.201536,311.16407 C271.831781,313.005146 271.464201,314.850569 271.464201,316.693818 C271.464201,323.99726 275.881686,327.820698 283.037532,329.094453 L283.037532,329.094453 L269.584976,392.814806 C242.821241,391.419327 221.89311,381.60098 213.023341,360.190594 L213.023341,360.190594 L212.444783,360.190594 C202.485324,377.88405 186.625011,392.997392 160.803064,392.997392 C125.761168,392.997392 104,365.350823 104,316.326473 C104,237.068918 150.047544,166.427685 201.317333,166.427685 C218.380438,166.427685 232.067897,179.328258 236.815985,192.522273 L236.815985,192.522273 L252.460971,118.368433 L312.776707,118.368433 Z M209.860848,213.845713 C181.461491,213.845713 163.384823,286.464961 163.384823,318.167548 C163.384823,335.493659 168.550518,346.550982 180.724156,346.550982 C195.847135,346.550982 207.494416,331.661526 212.657936,307.336284 L212.657936,307.336284 L224.829399,249.093513 C229.253409,228.448249 222.036662,213.845713 209.860848,213.845713 Z M409,118 L364.253123,329.510706 L301.762358,329.510706 L335.120782,172.999696 L317.927176,172.999696 L325.193948,137.695382 C330.705473,137.275869 336.691153,135.452182 342.400605,132.159112 C348.953968,128.379147 354.008736,123.314558 357.084227,118 L357.084227,118 L409,118 Z" id="Combined-Shape-Copy" fill="#2FD9A9"></path>
    </g>
</svg>