<svg width="81" height="81" viewBox="0 0 81 81" fill="none" xmlns="http://www.w3.org/2000/svg">
<rect x="0.452148" y="0.698242" width="80.2462" height="80.3019" rx="23.2218" fill="#70F2EE"/>
<path d="M36.5809 63.1897H36.3717C34.9802 63.0485 34.085 62.3182 33.6909 60.9939C33.4574 60.1808 33.3406 59.2655 33.3406 58.2382C33.3406 57.5663 33.3892 56.8457 33.4817 56.0764C31.2971 57.3521 28.9326 57.9947 26.3783 57.9947C23.5223 57.9947 21.2599 57.2742 19.5862 55.833C16.9151 53.5544 15.582 50.0928 15.582 45.448C15.582 44.5181 15.6939 43.1013 15.9129 41.1976C16.1318 39.2939 16.8276 36.9472 18.005 34.1574C19.1775 31.3676 20.7198 28.8115 22.6368 26.4891C24.5537 24.1668 26.7772 22.2826 29.3072 20.8414C31.8372 19.4003 34.625 18.6797 37.6659 18.6797C39.6412 18.6797 41.2857 19.1714 42.6091 20.1598C43.9325 21.1481 44.9055 22.3848 45.5332 23.8698C47.2993 28.5145 45.7764 31.6549 44.9396 32.9986C43.8011 34.6005 42.4096 35.5304 40.7603 35.7884C40.2737 35.8566 39.8066 35.8955 39.3688 35.8955C38.2546 35.8955 37.1161 35.6278 35.9533 35.0922C34.7905 34.5566 34.0753 33.7922 33.7931 32.7942C34.6494 32.726 35.6954 32.1515 36.9264 31.0706C38.1573 29.9898 39.2812 28.7434 40.3029 27.3266C41.3246 25.9098 41.9279 24.6682 42.1128 23.5971L42.1469 23.2125C42.1469 22.4237 41.5922 22.0294 40.4732 22.0294C38.9893 22.1706 36.9847 23.3196 34.4645 25.4813C31.9442 27.643 29.8278 30.3598 28.1103 33.6364C26.8794 36.1244 25.9404 38.549 25.2884 40.9201C23.9067 45.8618 23.6877 49.6059 25.4636 51.865C26.5875 53.1357 27.3659 53.5739 28.9472 53.5739C30.9663 53.5739 32.567 52.7268 33.7541 51.0276C34.5423 49.9126 35.2283 48.4131 35.8073 46.5337C36.0846 45.6525 36.3425 45.0488 36.5712 44.7226C35.6176 44.5619 34.7272 44.3866 33.8904 44.2016C32.2653 43.8072 30.8933 43.6076 29.7791 43.6076C28.665 43.632 27.8281 44.1286 27.2735 45.1072C25.9452 42.9844 27.9011 40.8811 29.677 40.1946C31.448 39.5033 34.771 39.2258 37.4421 39.4984C38.5806 39.6396 39.904 39.7078 41.4122 39.7078C42.5264 39.7078 43.733 39.6737 45.032 39.6006C44.5455 40.2969 43.733 41.9766 42.5945 44.6349C41.456 47.2981 40.3905 50.0782 39.3882 52.9799C38.2741 56.2761 37.7145 58.6033 37.7145 59.952C37.7145 61.2081 38.133 62.0406 38.9698 62.4594C38.0648 62.9462 37.2621 63.1897 36.5663 63.1897H36.5809Z" fill="#FF6A5F"/>
<path d="M53.1575 53.1847C51.299 53.1847 49.8393 52.6053 48.769 51.4417C47.2121 49.7474 46.4336 47.3081 46.4336 44.124C46.4336 43.1746 46.5552 41.9282 46.7985 40.3945C47.0418 38.8609 47.6402 37.1763 48.5938 35.3408C49.5474 33.5053 50.7784 32.0057 52.2866 30.8421C53.7949 29.6784 55.5464 29.065 57.5461 28.9968C60.1442 29.0212 62.0855 29.8342 63.3602 31.4361C64.7079 33.2034 65.3793 35.4187 65.3793 38.0916C65.3793 40.2972 64.9268 42.5514 64.0219 44.8543C63.1169 47.1523 61.7352 49.1144 59.8766 50.726C58.018 52.3424 55.7799 53.1603 53.1527 53.1847H53.1575ZM55.1426 50.2245C56.0962 50.2245 57.0255 49.6743 57.9304 48.5691C58.8354 47.4688 59.6236 46.1104 60.2999 44.5086C61.3459 41.9769 61.8665 39.7129 61.8665 37.7119C61.8665 35.5307 61.1951 34.4352 59.8474 34.4352C59.0592 34.4352 58.2564 35.0146 57.4439 36.1782C56.6995 37.2445 56.033 38.5541 55.4394 40.0975C54.8458 41.6409 54.4128 43.1941 54.1355 44.752C53.9262 45.867 53.8241 46.8456 53.8241 47.6782C53.8241 48.0044 53.863 48.5107 53.9457 49.1923C54.0284 49.8788 54.4274 50.2196 55.1475 50.2196L55.1426 50.2245Z" fill="#FF6A5F"/>
<path d="M40.5419 23.2864C39.6613 23.4276 38.0995 24.0216 35.2922 26.4316C32.9082 28.4765 30.8647 31.0958 29.23 34.2167C28.0526 36.5926 27.133 38.9686 26.5103 41.2471C27.4006 40.0154 28.4807 39.3337 29.3322 38.9637C29.6776 38.8128 29.9841 38.7105 30.2225 38.6472C31.8913 34.1242 34.976 28.8221 40.5468 23.2864H40.5419Z" fill="#003E6B"/>
<path d="M49.4215 32.1618C51.6255 23.8168 45.1059 19.172 42.3813 18.5439C48.03 21.5382 48.2538 27.3904 47.6845 30.3555C47.1153 33.3206 43.6949 39.981 35.4238 36.2369C36.9224 38.4181 46.7942 40.8233 49.4215 32.1618V32.1618Z" fill="#003E6B"/>
<path d="M56.9571 47.7707C57.3366 47.3082 57.6966 46.7873 58.0323 46.2176C58.2756 45.1075 58.6113 43.9926 59.0346 42.8874C59.4384 41.8357 59.8763 40.9253 60.3434 40.1463C60.5137 39.2894 60.6061 38.4715 60.6061 37.7119C60.6061 35.6914 60.032 35.6914 59.8423 35.6914C59.5844 35.6914 59.0881 36.0079 58.4654 36.8989C57.7891 37.8775 57.1615 39.1044 56.6068 40.5504C56.0473 42.0159 55.6289 43.5057 55.3661 44.9761C55.1715 46.0229 55.0742 46.9284 55.0742 47.6831C55.0742 47.8681 55.0937 48.2381 55.1764 48.9684C55.7213 48.9538 56.3197 48.5497 56.9571 47.7707V47.7707Z" fill="#003E6B"/>
<path d="M66.5801 31.7573C65.4562 30.3454 63.9917 29.3765 62.2013 28.8458C63.0333 29.3084 63.7485 29.9072 64.342 30.6521C65.8698 32.6532 66.6385 35.1508 66.6385 38.0916C66.6385 40.448 66.1519 42.8775 65.1935 45.3119C64.2204 47.7901 62.7073 49.9323 60.7027 51.6705C58.6204 53.4816 56.0855 54.4116 53.1663 54.4359H53.1566C50.9428 54.4359 49.1524 53.7105 47.8436 52.2888C46.8803 51.2371 46.1845 49.9372 45.7466 48.4133C45.6834 48.1942 45.6299 47.9702 45.5763 47.7463C45.5472 47.6197 45.5131 47.4931 45.4888 47.3616C45.4596 47.2107 45.4353 47.0549 45.4109 46.8991C45.372 46.6751 45.3379 46.4512 45.3088 46.2223C45.3039 46.1639 45.299 46.1055 45.2893 46.0519C45.2552 45.7306 45.226 45.4044 45.2114 45.0685V45.0879C45.192 44.7715 45.1823 44.455 45.1823 44.1288C45.1823 43.4131 45.2455 42.5659 45.3671 41.5776C44.9925 42.3274 44.4768 43.4472 43.7567 45.1269C42.6328 47.7511 41.5673 50.5312 40.5845 53.3891C39.2611 57.3085 38.9789 59.1196 38.9789 59.9522C38.9789 61.0574 39.3876 61.2619 39.5384 61.3398C39.9569 61.5491 40.2245 61.9776 40.2342 62.445C40.2391 62.9124 39.9861 63.3457 39.5725 63.5697C38.4729 64.1636 37.4901 64.4509 36.5754 64.4509H36.3662C36.3224 64.4509 36.2835 64.4509 36.2397 64.446C34.352 64.2561 33.0189 63.1607 32.4788 61.3592C32.2112 60.4245 32.0798 59.3825 32.0798 58.2481C32.0798 58.2238 32.0798 58.1946 32.0798 58.1702C30.2797 58.8957 28.3676 59.2608 26.3679 59.2608C23.2152 59.2608 20.656 58.4331 18.7585 56.7972C15.9804 54.431 14.511 50.8915 14.3505 46.2954C14.331 46.6849 14.3213 47.0354 14.3213 47.3422C14.3213 52.7367 15.9658 56.8751 19.2012 59.6308C21.3323 61.4664 24.1688 62.4012 27.628 62.4012C29.1947 62.4012 30.7175 62.1918 32.1771 61.778C32.2501 62.4158 32.3718 63.0244 32.5372 63.6037C33.2183 65.892 34.9845 67.3429 37.3734 67.5815C37.4561 67.5912 37.5388 67.5961 37.6215 67.5961H37.8307C38.9595 67.5961 40.132 67.2602 41.4213 66.5639C42.2484 66.1209 42.7544 65.2542 42.7398 64.3146C42.7252 63.4382 42.2582 62.6349 41.5138 62.1918C41.4992 62.1188 41.4894 62.0068 41.4894 61.8413C41.4894 61.2375 41.6889 59.6406 43.0269 55.6872C43.7908 53.467 44.6081 51.3102 45.4596 49.2215C45.8829 51.5634 46.783 53.5157 48.1744 55.0348C49.7119 56.7047 51.8673 57.5908 54.4118 57.5908H54.4313C57.657 57.5616 60.4643 56.5295 62.7803 54.5187C64.9356 52.6442 66.5655 50.3364 67.6116 47.6732C68.6284 45.0879 69.1441 42.5026 69.1441 39.9904C69.1441 36.7673 68.2927 34.0164 66.5752 31.7671L66.5801 31.7573Z" fill="#003E6B"/>
<path d="M33.6241 45.4193C32.0818 45.0444 30.7974 44.8545 29.7902 44.8545C29.1431 44.8691 28.7101 45.1271 28.3744 45.7211C28.1506 46.1155 27.7322 46.3541 27.2846 46.3541C27.2505 46.3541 27.2165 46.3541 27.1824 46.3541C26.6959 46.3151 26.2774 45.9986 26.1072 45.5458C25.9855 45.2196 25.9223 44.8691 25.9223 44.5137C25.9223 44.5137 25.2217 45.8867 25.6109 48.6959C26.0001 51.5052 27.4013 52.2598 28.7831 52.3085C28.7831 52.3085 28.316 50.6191 28.3939 47.7563C30.0432 47.4641 33.4198 47.9121 33.8042 48.36C34.0912 47.7076 34.3637 46.9773 34.6118 46.1642C34.6653 45.9889 34.7237 45.8234 34.7772 45.6676C34.3783 45.5897 33.9939 45.5069 33.6241 45.4241V45.4193Z" fill="#003E6B"/>
</svg>
