<svg xmlns="http://www.w3.org/2000/svg" width="400" height="400" fill="none"><path fill="#000" d="M0 0h400v400H0z"/><path fill="#fff" fill-rule="evenodd" d="M130.766 80.34c-.283.767-.606 1.938-.808 2.665a8.916 8.916 0 0 1-1.615 3.27 74.321 74.321 0 0 0-8.319 18.091l-.525 1.656-2.14 1.211c-2.099 1.171-2.18 1.171-3.432 1.05-2.827-.323-4.28.242-8.722 3.271-2.746 1.857-2.827 1.898-2.746 1.333.081-.566-.323-.768-1.656.565a7.26 7.26 0 0 1-2.019 1.534c-1.17.485-1.696 1.293-2.302 3.675-.605 2.382-.686 3.675 0 4.442.687.767.323.646 0 .767l-1.736 1.01c-1.332.727-1.494.767-1.938.484a2.18 2.18 0 0 0-2.463.525 55.04 55.04 0 0 0-4.523 8.076c-1.454 3.029-3.796 8.924-6.905 17.283-1.212 3.311-3.23 8.561-4.402 11.711a245.866 245.866 0 0 0-8.359 24.228l-2.866 10.014a826.359 826.359 0 0 0-3.514 12.963c-1.09 4.159-2.22 8.52-2.544 9.731-1.292 4.604-5.451 18.374-7.187 23.946-5.33 17.041-7.713 27.499-7.794 34.404 0 2.342 0 2.706-.565 3.15a1.696 1.696 0 0 0-.242 2.1c.524.808 2.019 1.575 5.209 2.544a28.548 28.548 0 0 0 15.062 1.09v2.019h-1.293c-2.18 0-2.947.485-2.22 1.212a51.77 51.77 0 0 0 10.983 3.27c.848 0 4.927.283 9.046.283h7.47l-.485 1.01a5.773 5.773 0 0 0 1.09 6.38 4.24 4.24 0 0 0 2.545 1.615c1.182.457 2.45.65 3.715.565 5.414.338 10.806.972 16.152 1.898a48.132 48.132 0 0 0 15.627.646 47.89 47.89 0 0 1 13.003.687l6.017.848 6.218 1.09c2.584.485 5.452 1.01 6.34 1.09 2.686.256 5.39.256 8.076 0h2.019l.727.768a45.76 45.76 0 0 1 5.33 7.712c1.09 1.777 2.302 3.634 2.746 4.038a4.034 4.034 0 0 0 4.401 1.575 2.666 2.666 0 0 0 1.979-1.938l.242-.808h.687c4.349.464 8.734.464 13.083 0a8.706 8.706 0 0 0 6.34-3.069 3.792 3.792 0 0 0 0-3.553l-.444-.808 2.786.404a76.84 76.84 0 0 0 5.976.525c3.913.083 7.814.461 11.67 1.131a56.194 56.194 0 0 0 15.91.969 63.17 63.17 0 0 1 13.528.444 71.004 71.004 0 0 0 16.152.727h1.858s.282.363.363.807a4.038 4.038 0 0 0 4.482 4.039 4.044 4.044 0 0 0 3.19-1.737c.929-1.05 1.171-1.615 1.979-4.886a33.132 33.132 0 0 1 4.644-9.732 49.887 49.887 0 0 0 5.169-10.297c.525-1.615.767-2.1 1.09-2.18a2.67 2.67 0 0 0 1.454-1.575 5.658 5.658 0 0 0-.404-3.392c-.445-1.131-.445-1.656 0-5.128a56.974 56.974 0 0 1 4.038-16.92c1.494-4.038 9.57-22.855 10.822-25.278a70.645 70.645 0 0 1 6.824-10.297 73.668 73.668 0 0 0 12.114-21.685l3.594-9.207a106.208 106.208 0 0 0 8.682-31.577 61.072 61.072 0 0 1 2.019-10.984 15.468 15.468 0 0 1 3.231-5.774 24.678 24.678 0 0 0 5.33-9.086l.525-1.696 1.09-.363a4.924 4.924 0 0 0 2.181-1.454c2.625-2.625 4.038-6.259 5.047-13.81.485-3.19 1.212-6.744 1.817-9.005.787-1.963.942-4.123.444-6.178a7.675 7.675 0 0 0-2.947-5.371 17.725 17.725 0 0 0-3.715-2.584 141.226 141.226 0 0 1-12.478-8.48 101.368 101.368 0 0 0-9.207-6.501 53.834 53.834 0 0 0-14.9-7.188 56.539 56.539 0 0 0-16.476-3.756c-1.696 0-4.28-.404-5.733-.605a24.77 24.77 0 0 0-4.483 0l-5.491.282a38.73 38.73 0 0 0-6.018.525 58.903 58.903 0 0 1-4.038.727l-4.482.808a41.252 41.252 0 0 1-5.734.727c-3.011.03-5.988.647-8.762 1.817a31.483 31.483 0 0 1-6.421 1.575c-1.615.201-4.482.646-6.34 1.01a56.24 56.24 0 0 1-9.893 1.17c-2.18 0-2.302 0-2.867-.565a2.948 2.948 0 0 0-4.038-.283 3.557 3.557 0 0 1-3.23.929 4.323 4.323 0 0 0-4.483 1.938c-.71.83-1.345 1.723-1.898 2.665l-.646 1.212-2.261.484a26.52 26.52 0 0 1-2.746.445 17.253 17.253 0 0 1-3.028-1.414 18.859 18.859 0 0 0-11.145-2.867c-2.498.29-4.96.832-7.35 1.615a12.112 12.112 0 0 1-7.187-.444 48.056 48.056 0 0 0-14.214-1.898 16.15 16.15 0 0 1-6.461-.848 41.996 41.996 0 0 1-4.886-2.302 24.231 24.231 0 0 0-11.59-3.836 10.054 10.054 0 0 1-4.038-.888 16.389 16.389 0 0 0-4.32-1.696 4.04 4.04 0 0 0-4.442 3.473Zm215.713 55.725v-.606a1.336 1.336 0 0 0-.04.687l.04-.081Zm-149.731 177.11h.282c.283 0 0 0 0-.202h-.282s-.243.121 0 .202ZM130.766 80.34c-.283.767-.606 1.938-.808 2.665a8.916 8.916 0 0 1-1.615 3.27 74.321 74.321 0 0 0-8.319 18.091l-.525 1.656-2.14 1.211c-2.099 1.171-2.18 1.171-3.432 1.05-2.827-.323-4.28.242-8.722 3.271-2.746 1.857-2.827 1.898-2.746 1.333.081-.566-.323-.768-1.656.565a7.26 7.26 0 0 1-2.019 1.534c-1.17.485-1.696 1.293-2.302 3.675-.605 2.382-.686 3.675 0 4.442.687.767.323.646 0 .767l-1.736 1.01c-1.332.727-1.494.767-1.938.484a2.18 2.18 0 0 0-2.463.525 55.04 55.04 0 0 0-4.523 8.076c-1.454 3.029-3.796 8.924-6.905 17.283-1.212 3.311-3.23 8.561-4.402 11.711a245.866 245.866 0 0 0-8.359 24.228l-2.866 10.014a826.359 826.359 0 0 0-3.514 12.963c-1.09 4.159-2.22 8.52-2.544 9.731-1.292 4.604-5.451 18.374-7.187 23.946-5.33 17.041-7.713 27.499-7.794 34.404 0 2.342 0 2.706-.565 3.15a1.696 1.696 0 0 0-.242 2.1c.524.808 2.019 1.575 5.209 2.544a28.548 28.548 0 0 0 15.062 1.09v2.019h-1.293c-2.18 0-2.947.485-2.22 1.212a51.77 51.77 0 0 0 10.983 3.27c.848 0 4.927.283 9.046.283h7.47l-.485 1.01a5.773 5.773 0 0 0 1.09 6.38 4.24 4.24 0 0 0 2.545 1.615c1.182.457 2.45.65 3.715.565 5.414.338 10.806.972 16.152 1.898a48.132 48.132 0 0 0 15.627.646 47.89 47.89 0 0 1 13.003.687l6.017.848 6.218 1.09c2.584.485 5.451 1.01 6.34 1.09 2.686.256 5.39.256 8.076 0h2.019l.727.768a45.76 45.76 0 0 1 5.33 7.712c1.09 1.777 2.302 3.634 2.746 4.038a4.034 4.034 0 0 0 4.401 1.575 2.666 2.666 0 0 0 1.979-1.938l.242-.808h.687c4.349.464 8.734.464 13.083 0a8.706 8.706 0 0 0 6.34-3.069 3.792 3.792 0 0 0 0-3.553l-.444-.808 2.786.404a76.84 76.84 0 0 0 5.976.525c3.913.083 7.814.461 11.67 1.131a56.194 56.194 0 0 0 15.91.969 63.17 63.17 0 0 1 13.528.444 71.004 71.004 0 0 0 16.152.727h1.858s.282.363.363.807a4.038 4.038 0 0 0 4.482 4.039 4.044 4.044 0 0 0 3.19-1.737c.929-1.05 1.171-1.615 1.979-4.886a33.132 33.132 0 0 1 4.644-9.732 49.887 49.887 0 0 0 5.169-10.297c.525-1.615.767-2.1 1.09-2.18a2.67 2.67 0 0 0 1.454-1.575 5.658 5.658 0 0 0-.404-3.392c-.445-1.131-.445-1.656 0-5.128a56.974 56.974 0 0 1 4.038-16.92c1.494-4.038 9.57-22.855 10.822-25.278a70.645 70.645 0 0 1 6.824-10.297 73.668 73.668 0 0 0 12.114-21.685l3.594-9.207a106.208 106.208 0 0 0 8.682-31.577 60.984 60.984 0 0 1 2.019-10.984 15.468 15.468 0 0 1 3.231-5.774 24.678 24.678 0 0 0 5.33-9.086l.525-1.696 1.09-.363a4.924 4.924 0 0 0 2.181-1.454c2.625-2.625 4.038-6.259 5.047-13.81.485-3.19 1.212-6.744 1.817-9.005.787-1.963.942-4.123.444-6.178a7.675 7.675 0 0 0-2.947-5.371 17.725 17.725 0 0 0-3.715-2.584 141.226 141.226 0 0 1-12.478-8.48 101.368 101.368 0 0 0-9.207-6.501 53.834 53.834 0 0 0-14.9-7.188 56.539 56.539 0 0 0-16.476-3.756c-1.696 0-4.28-.404-5.733-.605a24.77 24.77 0 0 0-4.483 0l-5.491.282a38.73 38.73 0 0 0-6.018.525 58.903 58.903 0 0 1-4.038.727l-4.482.808a41.15 41.15 0 0 1-5.734.727c-3.011.03-5.988.647-8.762 1.817a31.483 31.483 0 0 1-6.421 1.575c-1.615.201-4.482.646-6.34 1.01a56.24 56.24 0 0 1-9.893 1.17c-2.18 0-2.302 0-2.867-.565a2.948 2.948 0 0 0-4.038-.283 3.557 3.557 0 0 1-3.23.929 4.323 4.323 0 0 0-4.483 1.938c-.71.83-1.345 1.723-1.898 2.665l-.646 1.212-2.261.484a26.52 26.52 0 0 1-2.746.445 17.253 17.253 0 0 1-3.028-1.414 18.859 18.859 0 0 0-11.145-2.867c-2.498.29-4.96.832-7.35 1.615a12.112 12.112 0 0 1-7.187-.444 48.056 48.056 0 0 0-14.214-1.898 16.15 16.15 0 0 1-6.461-.848 41.996 41.996 0 0 1-4.886-2.302 24.231 24.231 0 0 0-11.59-3.836 10.054 10.054 0 0 1-4.038-.888 16.389 16.389 0 0 0-4.32-1.696 4.04 4.04 0 0 0-4.442 3.473Zm-27.58 41.713-.606 3.15 1.292-1.091c.539-.481 1.12-.914 1.736-1.292.296-.172.641-.238.979-.187.338.051.649.217.879.47.323.525-.404 2.584-2.14 6.097a142.088 142.088 0 0 0-6.582 15.91c-1.171 3.513-1.939 6.381-3.796 13.851-1.858 7.47-2.867 11.105-5.936 21.2l-3.432 11.427c-1.495 5.169-5.411 17.041-7.673 23.462-2.786 7.793-6.784 20.19-8.6 26.328-2.787 9.732-8.683 28.064-10.379 32.304-.524 1.252-.928 2.342-.928 2.423 0 .081.242 0 .605 0h1.333a23.232 23.232 0 0 1 2.665 0h1.979l1.211-3.513c.646-1.938 1.736-4.765 2.423-6.219 1.09-2.463 1.171-2.786.889-3.068a1.738 1.738 0 0 1 0-1.898 1.9 1.9 0 0 0 0-1.131 2.34 2.34 0 0 1 .484-2.382c.525-.525.646-1.091 1.857-7.229.606-2.988 1.333-6.501 1.656-7.753a152.783 152.783 0 0 1 4.926-15.102c2.827-7.309 4.362-11.751 6.623-19.262 2.665-8.722 5.41-17.081 9.045-27.378 1.535-4.442 4.038-12.397 5.896-17.686 6.34-19.908 8.318-25.683 12.397-36.343a458.36 458.36 0 0 0 3.755-9.934c1.252-3.513 1.373-4.038.888-3.553-2.14 1.817-4.038 2.14-2.099.363l.605-.605h-1.292a2.744 2.744 0 0 0-1.655.403 32.8 32.8 0 0 1-5.977 3.715l-2.342 1.373s-.363 1.373-.686 3.15Zm-9.692 8.359c0 1.373-2.786 9.005-5.41 16.152-1.01 2.746-2.746 7.592-4.039 10.782-1.292 3.19-2.584 7.47-3.31 9.53-3.433 9.651-12.923 38.24-13.77 41.43a542.311 542.311 0 0 0-2.303 9.045 280.436 280.436 0 0 1-9.247 31.174c-3.15 8.722-6.42 19.02-7.632 23.825a41.344 41.344 0 0 0-1.332 7.834c.276.143.578.225.888.242h.727l-.404-.606a2.26 2.26 0 0 1-.323-1.373c0-1.413.97-1.898 3.594-1.938a8.12 8.12 0 0 0 2.02 0c.241-.283 2.14-7.228 4.037-14.335a325.62 325.62 0 0 1 3.11-11.711c.807-2.786 2.26-8.076 3.19-11.427 2.665-10.055 4.038-14.053 7.834-25.925a935.245 935.245 0 0 0 6.582-20.392c1.574-5.128 4.038-13.002 5.774-17.565 3.594-10.499 5.29-15.83 7.147-22.573a123.724 123.724 0 0 1 4.725-14.255c.642-1.26 1.04-2.63 1.17-4.038 0-.969.405-3.27.687-5.128.219-1.103.313-2.227.283-3.352 0 0-.97.808-1.979 1.737l-1.857 1.655-.162 1.212Zm43.288-42.884-2.301 4.038a80.514 80.514 0 0 0-6.905 15.788c-2.1 6.017-5.654 15.587-7.713 20.675-2.504 6.421-4.523 11.832-6.542 17.606-3.069 8.803-15.506 45.953-19.665 58.673-4.16 12.72-5.33 16.153-8.52 24.229-2.733 6.797-5 13.772-6.784 20.877a39.806 39.806 0 0 1-3.271 10.539c-.283.404-.525.808-.485.888a155.722 155.722 0 0 0 18.656 4.038 159.137 159.137 0 0 0 16.435 1.333 154.13 154.13 0 0 1 34.647 4.846l2.261.686a37.3 37.3 0 0 0 1.615-4.805 198.64 198.64 0 0 0-20.19-2.585 129.44 129.44 0 0 1-16.435-2.463 131.216 131.216 0 0 0-13.366-2.14c-6.623-.606-9.61-1.696-10.903-4.038a3.35 3.35 0 0 1 .202-4.038c.324-.342.56-.758.686-1.212 0-.403.93-2.342 1.737-4.32 1.898-4.523 5.572-15.627 7.47-22.573.848-2.948 2.14-8.076 2.948-11.589a338.271 338.271 0 0 1 11.387-38.523c2.181-6.179 9.409-29.115 10.822-34.445.243-.767 2.342-7.269 4.684-14.376 2.343-7.107 4.644-14.335 5.048-16.152a43.995 43.995 0 0 1 5.29-12.962 14.016 14.016 0 0 1 2.746-3.554c1.494-1.494 1.736-1.696 2.584-1.898a2.06 2.06 0 0 1 2.221.445 5.293 5.293 0 0 1 0 3.755 2.91 2.91 0 0 0-.242 1.252s2.302.565 4.926 1.09l9.046 1.898 4.24.889.565-.566a3.147 3.147 0 0 1 2.867-.888c.727 0 .888.282 1.656 1.17l.888 1.051 4.563.403c5.231.535 10.493.71 15.748.525h19.423a.77.77 0 0 0 .768-.282c0-.243 0-.364-1.293-.485a14.904 14.904 0 0 1-6.178-2.261c-4.522-2.544-5.249-2.584-12.356-.687-2.23.635-4.562.827-6.865.566-.929 0-3.311-.646-5.33-1.171a45.59 45.59 0 0 0-12.114-1.494 22.978 22.978 0 0 1-14.255-4.038 19.744 19.744 0 0 0-9.57-4.039c-1.333-.201-2.867-.484-3.473-.646-.605-.161-.969.04-1.373.97Zm5.452 14.779c-.444 1.211-1.454 3.674-2.221 5.451a120.638 120.638 0 0 0-4.967 14.335c-1.252 4.038-3.432 10.742-4.846 15.224-1.413 4.482-3.432 10.983-4.442 14.456a285.134 285.134 0 0 1-8.843 27.742c-2.544 6.824-4.523 12.72-6.501 19.705l-2.827 9.611c-.686 2.302-1.857 6.421-2.624 9.086-2.504 8.722-3.756 12.8-4.967 16.152a77.793 77.793 0 0 1-6.3 14.335c-1.373 2.423-1.736 3.271-1.655 3.715.08.444 0 .687-.525 1.01-.525.323-.566.605.888 1.09 2.063.607 4.192.96 6.34 1.05a147.374 147.374 0 0 1 15.304 2.463c6.905 1.373 10.216 1.898 17.202 2.827 2.019.242 6.784 1.09 10.58 1.817 3.796.727 6.986 1.292 7.067 1.252.258-1.336.447-2.684.565-4.038.242-2.221.565-4.644.686-5.371.243-1.656 1.696-7.753 2.827-11.711 1.131-3.957 8.399-26.085 10.943-33.152 1.979-5.532 5.734-14.86 6.421-16.152 0-.404 0-.848-.283-2.181-.283-1.332-.808-2.867-1.131-4.28l-.484-2.585-1.373-1.211a4.766 4.766 0 0 1-1.858-2.584 17.383 17.383 0 0 1 0-9.005c1.616-8.076 4.483-14.335 7.511-16.677.687-.485.767-.646.767-1.293a4.488 4.488 0 0 1 1.01-2.584 4.365 4.365 0 0 1 3.23-.888 5.082 5.082 0 0 0 1.696 0 17.934 17.934 0 0 1 7.794-2.262 6.587 6.587 0 0 1 4.038.889l.686.484 1.373-5.451a62.184 62.184 0 0 1 5.492-16.152 103.426 103.426 0 0 0 4.846-11.347c.646-1.818 1.655-4.402 2.18-5.734a9.854 9.854 0 0 0 .848-2.504h-10.943l.242 1.05a21.641 21.641 0 0 1-2.624 10.903 8.445 8.445 0 0 1-4.038 4.401 4.317 4.317 0 0 1-4.604-1.09 5.659 5.659 0 0 1-.929-5.976 38.9 38.9 0 0 1 3.392-8.077 9.414 9.414 0 0 0 .889-1.574s-1.575-.243-3.513-.445l-3.958-.242h-.848l-.403 1.171-.404 1.212.807-.323a2.538 2.538 0 0 1 2.23.062 2.534 2.534 0 0 1 1.324 1.795 9.129 9.129 0 0 1-1.373 4.563 28.466 28.466 0 0 1-5.936 6.259 4.038 4.038 0 0 1-5.249-.444c-1.737-1.736-1.454-4.321.888-8.601a30.913 30.913 0 0 1 3.392-4.806c1.131-1.13 1.05-1.211-2.423-1.574-3.473-.364-3.23-.323-3.311 0a36.363 36.363 0 0 1-4.482 13.568 2.385 2.385 0 0 1-2.827.969c-1.777-.727-1.898-2.423-.565-6.663a58.746 58.746 0 0 0 2.261-8.076c-.301.284-.56.61-.767.969a9.93 9.93 0 0 1-3.554 3.432c-1.454.444-2.544 0-2.544-1.575a1.617 1.617 0 0 1 .606-1.413 23.518 23.518 0 0 0 1.655-2.019c.929-1.131 1.05-1.413.808-1.534l-3.19-.808-7.147-1.696-5.25-1.252a3.2 3.2 0 0 0-1.05 0s-.565 1.09-1.009 2.302Zm77.531-9.167c1.009 2.302 1.05 3.473 0 4.604-1.05 1.13-.768.727-2.019 1.17a6.665 6.665 0 0 0-1.818.808 8.087 8.087 0 0 0-.848 1.495 2.463 2.463 0 0 0-.282 2.059 3.074 3.074 0 0 1-1.737 3.513 67.87 67.87 0 0 0-5.693 12.639c-1.656 4.038-2.383 5.734-5.25 11.912a58.133 58.133 0 0 0-4.038 12.115c-2.423 9.853-2.705 10.701-5.088 14.779a69.785 69.785 0 0 0-5.774 12.962 44.839 44.839 0 0 1-5.169 10.62 69.623 69.623 0 0 0-4.967 9.732c-.565 1.333-2.019 4.442-3.19 6.946-4.765 10.054-5.007 10.7-13.447 38.361-.605 1.938-1.574 5.653-2.14 8.319-.565 2.665-1.373 5.976-1.777 7.43a63.696 63.696 0 0 0-1.776 9.449l-.364 3.028 1.373.404c1.656.444 2.423.969 2.221 1.454-.202.484-.686.525-2.584.565h-1.494l-.767 2.867a57.21 57.21 0 0 0-1.777 8.601 13.968 13.968 0 0 1-2.423 6.663 11.13 11.13 0 0 0-.888 1.413c.157.357.391.674.686.929.606.687.767.727 2.746 1.01 2.625.403 3.675.807 4.321 1.655a2.508 2.508 0 0 1 0 2.948l-.485.646 1.373 1.212c2.302 2.019 6.38 5.37 6.865 5.693.821.294 1.675.483 2.544.566 2.015.139 3.962.792 5.653 1.897 1.575 1.091 1.979 1.777 1.615 2.787a3.754 3.754 0 0 1-.848 1.453l-.606.606 2.06 2.827 2.059 2.867h1.05l3.433.444c3.296.389 6.622.47 9.933.242.485 0 .485 0 0-.484-.484-.485-4.522-3.554-7.228-5.896-1.453-1.252-5.653-5.29-9.651-9.287a59.86 59.86 0 0 1-10.943-12.478 9.727 9.727 0 0 0-.929-1.413 9.053 9.053 0 0 0-.727.928c-.726 1.171-1.373 1.575-2.059 1.333-.686-.242-.646-.646 0-.525s.444 0 0-.808a4.44 4.44 0 0 1 0-2.503c0-.889.323-3.634.444-6.057a31.944 31.944 0 0 1 1.252-9.894c.363-1.05.969-3.27 1.373-4.966a31.647 31.647 0 0 1 4.038-11.388 16.16 16.16 0 0 0 2.504-7.712 36.118 36.118 0 0 1 2.422-8.884c.283-.525 1.05-1.737 1.697-2.665a28.3 28.3 0 0 0 4.038-9.57 81.994 81.994 0 0 1 6.299-16.435c.444-.97 2.181-5.856 3.796-10.822 1.615-4.967 3.593-10.419 4.361-12.115a58.38 58.38 0 0 0 3.392-9.974 52.502 52.502 0 0 1 6.986-16.152 78.354 78.354 0 0 0 5.653-10.539l6.38-13.77c.565-1.171 1.615-3.675 2.302-5.532.686-1.858 1.938-4.886 2.705-6.784a13.25 13.25 0 0 0 1.454-4.604 29.914 29.914 0 0 1 3.392-9.731c.969-2.1 1.938-4.24 2.14-4.846a17.328 17.328 0 0 0-.525-8.076 11.064 11.064 0 0 0-.686-1.858l-1.252.404a5.9 5.9 0 0 1-2.1.364c-.969-.202-1.534.282-1.211 1.05Zm8.722-1.817c.16.24.366.446.606.606a7.629 7.629 0 0 1 1.292 1.777c.525.807.969 1.494 1.009 1.494l.727-.202a42.628 42.628 0 0 1 4.482-.767 87.311 87.311 0 0 0 15.305-3.352 28.506 28.506 0 0 1 10.256-2.1 58.962 58.962 0 0 0 9.813-1.09 30.445 30.445 0 0 1 9.53-.808 216.904 216.904 0 0 1 21.482 4.685l5.008 1.332a43.985 43.985 0 0 1 14.658 6.623 405.03 405.03 0 0 0 8.076 4.724 57.103 57.103 0 0 1 10.135 6.824c1.454 1.212 3.392 2.787 4.321 3.473l2.584 2.019c.485.404.929.646.97.566.51-1.598.902-3.231 1.171-4.886a7.81 7.81 0 0 0-1.616-1.131l-2.705-1.575a112.033 112.033 0 0 1-10.015-8.076c-2.988-2.463-5.532-4.442-9.529-7.188a146.908 146.908 0 0 1-4.038-2.867 14.1 14.1 0 0 0-5.048-2.382c-1.979-.727-4.725-1.777-6.017-2.383a39.688 39.688 0 0 0-14.617-3.594 27.91 27.91 0 0 0-8.36-.525c-1.049 0-2.947.243-4.038.283-1.855.1-3.703.317-5.532.646-1.696.283-4.038.687-5.128.808l-4.038.605c-1.171 0-3.352.323-4.886.364a16.394 16.394 0 0 0-7.592 1.494 29.803 29.803 0 0 1-8.076 2.14 140.91 140.91 0 0 0-5.895 1.01 37.76 37.76 0 0 1-12.801.888 3.47 3.47 0 0 0-1.292 0s-.323.323-.202.565Zm2.988 10.419c0 .363-.363 1.857-.727 3.311a608.322 608.322 0 0 1-1.696 6.582c-1.211 4.886-1.979 6.42-3.594 7.349-.605.323-.767.646-2.221 4.038-2.544 6.017-4.643 10.539-7.228 15.506-1.332 2.585-3.149 6.3-4.038 8.278a93.392 93.392 0 0 1-6.097 12.115 50.746 50.746 0 0 0-6.744 16.636 64.164 64.164 0 0 1-3.432 9.49c-.646 1.534-2.423 6.34-4.038 10.66a81.111 81.111 0 0 1-5.856 14.658 37.687 37.687 0 0 0-3.028 7.027h.525a51.685 51.685 0 0 1 5.613-2.262 50.678 50.678 0 0 0 8.076-3.795l3.15-1.939 1.494-.928-.727-.929a28.996 28.996 0 0 1-3.715-6.542 10.128 10.128 0 0 1 0-6.218c.767-2.948 1.373-4.039 2.746-4.483.444-.202.686-.282.686-.363 0-.081 0-.202-.404-.323a4.924 4.924 0 0 1-1.655-3.271 2.06 2.06 0 0 1 1.938-2.221h.889l.242-1.494a34.088 34.088 0 0 1 3.311-9.045 126.89 126.89 0 0 0 3.23-7.511 80.802 80.802 0 0 1 5.411-12.114 26.87 26.87 0 0 1 4.725-7.592 9.486 9.486 0 0 1 5.774-2.826 18.526 18.526 0 0 0 2.504-.606 11.277 11.277 0 0 0 1.535-3.635 14.616 14.616 0 0 1 3.634-6.945 12.117 12.117 0 0 1 5.895-3.23c5.048-1.737 5.573-2.221 7.43-7.309.606-1.696 1.333-3.513 1.616-4.038 1.696-3.352 3.755-4.563 9.448-5.411a14.217 14.217 0 0 0 9.49-4.442c1.414-1.171 4.038-3.311 6.017-4.765l5.774-4.361a19.1 19.1 0 0 1 8.844-4.038 5.26 5.26 0 0 0 1.575-.485 62.137 62.137 0 0 0-9.611-1.252 40.382 40.382 0 0 0-4.038.767 44.67 44.67 0 0 1-9.974 1.212 31.338 31.338 0 0 0-11.186 1.979 76.314 76.314 0 0 1-18.131 3.674 6.223 6.223 0 0 0-3.472.848c.008.082.022.163.04.243ZM70.922 272.35c-.647 2.665-1.171 4.886-1.131 4.967 2.525.5 5.103.676 7.672.525a46.748 46.748 0 0 1 12.599 1.292c2.584.525 5.653 1.05 6.824 1.171 5.105.401 10.229.496 15.345.283l10.862-.202a96.03 96.03 0 0 0 13.689-1.01 47.587 47.587 0 0 1 5.29-.485c2.585 0 4.038 1.212 4.038 3.11v.969l.364-.565c.565-.889.605-1.535.242-4.523l-.323-2.705h-2.382c-1.293 0-4.846-.445-8.077-.768-6.662-.727-8.076-.848-16.798-1.211a200.698 200.698 0 0 1-22.492-1.615c-2.867-.404-8.642-1.616-12.962-2.706-3.352-.848-3.755-.929-3.675-.525.081.404-.242.525-.97 0a6.51 6.51 0 0 0-1.574-.929c-.928-.363-1.01-.323-1.494 0a2.743 2.743 0 0 1-3.473.243h-.323c-.08 0-.605 1.817-1.251 4.684Zm106.322-109.27a23.96 23.96 0 0 0-2.463 5.491 49.87 49.87 0 0 0-2.262 9.369 64.696 64.696 0 0 0 1.01 8.722 22.839 22.839 0 0 0 1.453-2.544c.768-1.413 1.939-3.432 2.666-4.482a50.545 50.545 0 0 0 6.985-13.608 67.166 67.166 0 0 1 4.442-9.651c.184-.219.334-.464.445-.727l.242-.525h-1.09a11.293 11.293 0 0 0-5.25 1.777 65.897 65.897 0 0 0-6.178 5.976v.202ZM67.247 286.322a7.176 7.176 0 0 0-.363 1.534c.307.046.62.046.928 0a65.88 65.88 0 0 1 12.559-.929h5.209a28.544 28.544 0 0 0-3.796-.888c-.727 0-2.544-.242-4.038-.283-2.64.01-5.276-.219-7.874-.686a5.85 5.85 0 0 0-2.02 0 6.938 6.938 0 0 0-.605 1.05v.202Zm185.226-162.21a14.251 14.251 0 0 1-11.751 11.388c-.878.218-1.731.529-2.544.928-.767.445-.888.606-1.413 1.737a31.856 31.856 0 0 0-1.333 4.038 12.519 12.519 0 0 1-2.503 5.774 9.043 9.043 0 0 1-6.502 2.908c-1.978.242-2.907.605-3.513 1.413a130.983 130.983 0 0 0-7.591 14.376c-1.333 2.907-2.948 6.178-3.634 7.268a32.073 32.073 0 0 0-5.008 9.974c-.605 2.342-.767 2.867-.565 3.109h.283c.646.202.525.566 0 .687-.525.121-.646.242-1.212 1.09a9.893 9.893 0 0 1-1.938 2.06l-1.292 1.13.444 2.908c.144 1.272.4 2.529.767 3.755a17.767 17.767 0 0 0 1.737 2.867c1.615 2.221 1.695 2.261 2.867 1.535a73.688 73.688 0 0 0 13.043-16.557c.726-1.09 2.382-3.27 3.674-4.805a20.09 20.09 0 0 0 2.06-2.625 26.614 26.614 0 0 0 2.099-4.038 15.067 15.067 0 0 1 3.675-5.087c.444-.364 1.535-1.091 2.383-1.697 1.938-1.251 2.18-1.574 3.674-4.845a20.192 20.192 0 0 1 7.713-10.459 15.461 15.461 0 0 0 4.926-4.805c.323-.606 1.252-2.584 2.019-4.442.767-1.857 2.141-4.644 2.989-6.178.848-1.535 1.897-3.635 2.342-4.644a21.285 21.285 0 0 1 3.594-5.653c.444-.444 1.574-1.454 2.503-2.181a14.543 14.543 0 0 0 3.473-3.755 34.196 34.196 0 0 1 10.579-10.297l3.272-1.939a21.36 21.36 0 0 0 5.007-4.038c.727-.888.767-.969.323-.969-1.212 0-2.262.525-5.291 3.029-1.655 1.292-4.401 3.392-6.177 4.644a567.704 567.704 0 0 0-4.483 3.19 20.44 20.44 0 0 1-12.881 5.209 13.547 13.547 0 0 0-4.442.646 30.316 30.316 0 0 0-1.373 3.149v.202ZM90.95 295.326c.337.314.635.667.889 1.05 0 .283.404.323 1.17 0a27.489 27.489 0 0 1 4.039 0c1.655 0 4.361.364 6.057.445 1.696.08 4.967.444 7.268.767 3.995.74 8.079.876 12.115.404a65.432 65.432 0 0 1 14.537.201l8.076.808c3.028.323 8.076 1.09 9.408 1.413 1.333.323.283 0-1.494-1.736a59.14 59.14 0 0 1-3.069-2.786l-1.251-1.252H90.143l.807.686ZM297.255 96.29c0 .404 0 .444 1.616.283a5.37 5.37 0 0 0 1.413-.242l-1.333-.364c-1.251-.484-1.615-.444-1.858.121l.162.202Zm-21.684 25.036c-.323.364-1.333 1.736-2.302 2.988a30.994 30.994 0 0 1-4.402 4.846 28.272 28.272 0 0 0-3.351 3.473 83.178 83.178 0 0 0-5.371 12.8 28.233 28.233 0 0 1-3.27 7.753 20.872 20.872 0 0 1-5.856 5.411 12.683 12.683 0 0 0-5.451 7.794 13.728 13.728 0 0 1-6.057 8.076c-2.221 1.454-2.342 1.615-3.352 4.725a19.025 19.025 0 0 1-4.805 8.076c-2.544 3.069-2.786 3.432-2.463 3.594a2.823 2.823 0 0 1 1.898 3.109v.565c0 .323-.243.768-.243.768l-.565.605a25.115 25.115 0 0 0-2.06 7.269 14.293 14.293 0 0 0-.403 9.207 17.62 17.62 0 0 1 .565 5.774v6.501a16.137 16.137 0 0 1-.525 5.209c-.363 1.414-.888 3.715-1.211 5.088a42.23 42.23 0 0 1-5.613 13.326c-.848 1.494-2.221 4.038-3.069 6.057-.848 2.019-1.979 4.038-2.504 5.128l-.969 1.898a7.322 7.322 0 0 0 1.979.202c6.097.323 10.378.525 13.81.606 4.667.064 9.312.647 13.851 1.736l8.358 1.615a56.151 56.151 0 0 1 10.055 2.383l6.784 2.261c1.97.619 3.898 1.36 5.774 2.221 1.816.9 3.446 2.132 4.806 3.634l2.948 2.706c.176-.58.297-1.174.363-1.777a90.667 90.667 0 0 1 7.228-21.482s-.727 1.615-2.059 1.534c-.606 0-3.069.242-5.21.444-2.14.202-3.109.323-3.149.283-.04-.04-.243 0-.364.283-.121.282-5.249 0-8.56-1.333-8.076-3.513-18.818-13.729-27.58-26.409a40.134 40.134 0 0 1-7.794-18.736 55.41 55.41 0 0 1 .889-16.637c.686-3.271 2.1-5.25 4.038-5.815a2.791 2.791 0 0 1 2.219.185 2.793 2.793 0 0 1 1.374 1.753c0 .687.243.727.808.929 1.171.404 1.535.969 3.635 6.34.565 1.413 2.503 4.886 2.503 4.886s.525 1.575 3.433 5.936a61.845 61.845 0 0 0 11.346 13.81l5.532 5.532 4.038 2.504a53.311 53.311 0 0 0 9.248 4.805l5.815 2.665a14.918 14.918 0 0 0 5.532 2.059c.525 0 .565 0 1.575-2.019a74.175 74.175 0 0 1 7.753-12.114h-.848a78.893 78.893 0 0 1-8.601 1.696 11.143 11.143 0 0 1-4.765-.807c-1.414-.485-4.039-1.616-6.098-2.504a15.542 15.542 0 0 1-5.532-3.352c-1.131-.928-2.463-2.019-3.029-2.382a16.689 16.689 0 0 1-2.867-2.665l-5.128-5.613a45.352 45.352 0 0 1-4.361-5.29l-2.867-4.482a24.6 24.6 0 0 1-3.796-7.672 49.276 49.276 0 0 1-2.382-16.839c.121-.466.402-.874.793-1.154.39-.281.867-.415 1.347-.381.646 0 .848.202 1.373.848a58.112 58.112 0 0 1 4.038 9.53 27.014 27.014 0 0 0 5.169 10.58c.767.969 2.059 2.665 2.826 3.796a108.356 108.356 0 0 0 12.115 13.043 25.37 25.37 0 0 0 3.311 2.342 28.31 28.31 0 0 0 5.047 1.736l4.725 1.413 1.453-.363c.808-.242 2.989-.727 4.846-1.171a28.347 28.347 0 0 0 4.039-1.171c1.171-1.535 8.076-9.49 9.933-11.589l.363-.445c.848-.928 1.091-1.211 1.333-1.211l2.019-5.088a109.803 109.803 0 0 0 6.38-19.463c.808-4.039 1.09-5.734 2.504-15.224a27.656 27.656 0 0 1 6.541-16.152c.97-1.131 1.131-1.454 1.172-2.14.04-.687.201-1.495.363-2.343a28.21 28.21 0 0 0 .404-3.391 14.04 14.04 0 0 0-.525-2.06l-2.1-4.038-.727-.929a87.864 87.864 0 0 1-6.259-11.589 9.122 9.122 0 0 0-2.261-6.057 8.071 8.071 0 0 1-2.1-6.461v-.484l-3.634-2.464-5.532-3.715a13.46 13.46 0 0 0-4.038-2.1c-2.343-.807-2.545-.847-2.666-.282s-1.049 1.211-3.149 1.736a18.3 18.3 0 0 0-6.098 2.302 25.93 25.93 0 0 0-2.948 3.392 31.6 31.6 0 0 1-4.32 4.765 22.85 22.85 0 0 1-8.076 5.047 32.284 32.284 0 0 0-3.352 1.656 22.756 22.756 0 0 0-3.796 3.957l.162.202Zm64.932 3.634a4.92 4.92 0 0 1 0 1.737 21.629 21.629 0 0 1-3.392-5.331c0-.323-.929-2.584-1.857-5.289l1.372 1.332c1.979 1.938 3.756 3.594 4.038 3.675.283.081.243.404 0 1.413a7.25 7.25 0 0 0-.322 2.262l.161.201Zm-50.355 130.632.606-1.494c1.736-4.038 3.15-7.39 3.15-7.43 0-.041-.485 0-1.091 0a24.25 24.25 0 0 1-7.551-2.665l-6.34-2.948a65.834 65.834 0 0 1-11.024-6.542 142.928 142.928 0 0 1-12.114-12.437c-1.898-2.504-5.573-7.834-7.269-10.539a42.508 42.508 0 0 1-5.168-11.509 10.491 10.491 0 0 0-.808-2.261 21.402 21.402 0 0 0-1.09 7.228 40.393 40.393 0 0 0 3.23 13.689 75.806 75.806 0 0 0 4.564 7.672 240.733 240.733 0 0 0 17.969 22.573l1.494 1.494.565-.242c.848-.404 2.262 0 5.896 1.413 6.663 2.706 13.689 2.665 15.869.848.687-.565.364 0 0 1.171a11.54 11.54 0 0 0-1.05 1.777l.162.202Zm-109.553-30.286a29.074 29.074 0 0 1-4.845 10.378 23.213 23.213 0 0 0-2.746 8.763 17.973 17.973 0 0 1-2.706 8.076 31.907 31.907 0 0 0-1.615 2.786 24.243 24.243 0 0 0-1.817 5.613 5.239 5.239 0 0 0 2.181 0 177.29 177.29 0 0 1 17.888 0l9.53.283h1.979l-.848-.848c-1.979-1.979-1.858-5.492.403-14.012 2.262-8.521 2.262-10.782.364-15.184a18.376 18.376 0 0 0-4.038-6.097l-1.615-1.615-1.696.363a13.93 13.93 0 0 1-8.925-.888c-.242-.283-.484-.444-.525-.363-.389.89-.713 1.808-.969 2.745Zm-46.114 62.51h8.116a6.406 6.406 0 0 1-.686-1.535 7.48 7.48 0 0 0-.525-1.332l-3.109.848c-1.696.484-4.039 1.09-5.129 1.292l-2.14.484a28.9 28.9 0 0 0 3.351.243h.122Zm66.708-66.104a28.995 28.995 0 0 1 6.663 13.366 32.297 32.297 0 0 1-1.494 12.801c-.767 2.585-2.867 8.722-3.513 10.176a1.745 1.745 0 0 0 0 1.373c0 .444 0 .525-.565 1.131l-.808.605h2.908c1.007.095 2.021.095 3.028 0 0 0 .283-.928.525-1.857a78.589 78.589 0 0 1 6.744-18.696 33.247 33.247 0 0 0 3.432-10.055 20.456 20.456 0 0 0 .969-6.703v-6.179c.02-1.05-.116-2.098-.404-3.109-.242-.888-.565-2.221-.686-2.948a5.745 5.745 0 0 0-.242-1.332l-1.696 1.171a22.27 22.27 0 0 1-7.148 3.594 14.743 14.743 0 0 0-4.038 1.898c-2.625 1.938-4.321 3.149-4.563 3.23-.242.081-.202.444.767 1.534h.121Zm-36.342 45.873a20.925 20.925 0 0 0-.848 3.109c.49.127 1.004.127 1.494 0 1.979-.282 15.829-.484 19.423-.282a162.156 162.156 0 0 1 19.302 2.503c2.746.485 7.834 1.252 11.347 1.737a216.595 216.595 0 0 1 29.437 5.33 87.343 87.343 0 0 1 19.343 6.259 28.023 28.023 0 0 1 13.245 11.024c.146.4.366.769.646 1.09a24.503 24.503 0 0 0 2.302-5.088 27.296 27.296 0 0 0 1.171-6.219v-1.332l-4.038-4.038-4.038-4.038-1.697-.848a48.144 48.144 0 0 0-4.643-1.777l-6.259-2.059a49.957 49.957 0 0 0-10.419-2.504c-2.342-.404-5.37-.969-6.743-1.292a49.123 49.123 0 0 0-15.022-2.14c-3.311 0-8.076 0-13.366-.525-4.175-.37-8.369-.478-12.558-.323a256.751 256.751 0 0 1-28.266-1.212c-1.656 0-4.281-.242-5.856-.242h-2.867l-1.09 2.867Zm-1.736 9.893c0 1.131-.283 2.665-.323 3.352v1.292l3.715 3.271c2.059 1.817 5.451 4.967 7.591 7.026 6.784 6.501 18.777 17.404 19.1 17.445a2.07 2.07 0 0 0 .283-.606c.323-1.01 1.494-1.615 3.311-1.737 1.565.013 3.129.107 4.684.283 2.06.202 6.138.404 9.086.444a72.16 72.16 0 0 1 13.648 1.414 71.565 71.565 0 0 0 14.255 1.332c4.848-.03 9.692.28 14.497.929a72.044 72.044 0 0 0 16.637.686h1.372l.969-2.382a17.188 17.188 0 0 0 1.979-7.269 9.562 9.562 0 0 0-4.038-8.076 29.305 29.305 0 0 0-7.713-4.845 61.143 61.143 0 0 0-12.719-3.473l-8.359-1.858c-6.946-1.615-14.295-2.907-25.804-4.643-3.109-.445-7.591-1.212-10.014-1.656-5.734-1.01-9.045-1.494-14.577-2.06-6.106-.6-12.24-.857-18.374-.767h-8.722l-.484 1.898Zm.888 2.786c0 .566 0 .848.808 1.454.807.606 2.584 1.535 7.106 2.625a55.461 55.461 0 0 0 12.801 1.696 137.8 137.8 0 0 1 18.898 1.332c7.754 1.373 30.528 6.784 35.737 8.48 1.01.364 3.271 1.212 4.967 1.939 1.696.726 4.603 1.776 6.461 2.342 3.352 1.09 4.038 1.332 4.038 1.777a63.68 63.68 0 0 1-12.114.201 93.927 93.927 0 0 1-9.893-.888c-1.414-.242-1.454-.283-1.131-.565.323-.283 1.09-1.091.807-1.373a8.801 8.801 0 0 0-2.341-.848l-4.806-1.414a92.578 92.578 0 0 0-17.687-4.038l-9.772-1.655a136.432 136.432 0 0 0-23.097-2.746 1.616 1.616 0 0 0-1.131 1.696c0 .646.767 1.292 1.171 1.211a1.857 1.857 0 0 1 1.05 0l2.423.566c1.898.363 2.059.444 1.332.605a1.864 1.864 0 0 0-1.329 1.16 1.844 1.844 0 0 0-.101.904c.041.305.158.595.34.844.606.848 1.656 1.413 4.563 2.342a74.65 74.65 0 0 0 12.68 2.584c3.068.444 7.47 1.171 9.852 1.575 2.383.404 6.098.969 8.077 1.252a125.1 125.1 0 0 1 12.881 2.221 43.43 43.43 0 0 0 14.577 1.777h8.077c7.631.484 10.014.242 11.467-1.212 1.454-1.454 1.495-2.665 0-5.855a9.385 9.385 0 0 0-1.776-3.109c-1.131-1.333-1.857-1.696-5.936-3.15a152.363 152.363 0 0 1-5.936-2.342c-1.615-.687-4.038-1.575-5.048-1.979-2.342-.848-13.366-4.038-17.121-4.765l-9.166-2.261a78.07 78.07 0 0 0-19.02-3.392l-9.893-.485c-3.432-.202-7.632-.323-9.328-.323-1.696 0-4.038 0-5.653-.242-1.615-.242-3.19-.283-4.038-.283-2.544.323-3.917 1.05-3.836 2.504l.04-.162Zm19.383 13.286a108.93 108.93 0 0 0 12.72 1.898 45.312 45.312 0 0 0-6.946-1.212 32.665 32.665 0 0 0-5.815-.807l.041.121Zm163.097-157.485v-.606a1.336 1.336 0 0 0-.04.687l.04-.081Zm-149.731 177.11h.282c.283 0 0 0 0-.202h-.282s-.243.121 0 .202Zm99.659-170.689a27.598 27.598 0 0 0-2.988 7.147 48.095 48.095 0 0 0-2.302 8.601 16.183 16.183 0 0 0 0 5.936 3.755 3.755 0 0 0 6.946.565 31.272 31.272 0 0 0 3.109-12.841c.888-6.501.808-9.247-.323-11.185-.646-1.131-1.212-1.333-2.261-.687a6.292 6.292 0 0 0-2.342 2.464h.161Zm-13.81 21.886a79.401 79.401 0 0 0 .363 11.226 56.943 56.943 0 0 0 2.585 12.114 33.786 33.786 0 0 0 1.696 3.715 16.639 16.639 0 0 0 5.168 5.855 6.79 6.79 0 0 0 2.787 1.777c3.311.969 5.815-.283 11.831-6.017l2.665-2.503 1.05-2.06a53.385 53.385 0 0 1 2.14-3.594 14.972 14.972 0 0 0 2.585-6.582c.888-4.038.888-5.168 0-6.138a3.318 3.318 0 0 0-3.312 0 14.383 14.383 0 0 0-4.805 6.017 12.767 12.767 0 0 1-1.655 2.504 17.41 17.41 0 0 0-1.979 3.069 9.245 9.245 0 0 1-2.463 3.311 30.662 30.662 0 0 1-2.423 2.059 15.4 15.4 0 0 0-1.494 1.252l-.687.646-1.13-.969a7.5 7.5 0 0 1-2.14-2.827 20.186 20.186 0 0 1-2.464-6.178 89.423 89.423 0 0 1-2.463-10.459 14.572 14.572 0 0 0-2.261-6.824c-1.131-1.09-2.059-1.252-2.907-.363a2.064 2.064 0 0 0-.849.969h.162Zm30.488-22.936a38.432 38.432 0 0 0-8.077 15.425c-1.817 6.34 0 10.984 4.039 10.943a3.638 3.638 0 0 0 2.988-1.332c.888-.889 1.17-1.898 1.574-5.775.242-1.938.767-5.451 1.212-7.793.444-2.342 1.13-6.421 1.534-9.086.565-4.038.646-4.926.363-5.209-.282-.283-.565-.323-1.695.565-.283.283-1.171 1.252-2.1 2.262h.162Zm-205.74 98.004a66.791 66.791 0 0 1 2.181-2.908 31.747 31.747 0 0 1 4.36-4.361c2.06-1.736 2.504-2.019 3.514-1.938a2.625 2.625 0 0 1 2.503 3.028 25.897 25.897 0 0 1-1.171 4.442 67.9 67.9 0 0 0-2.746 10.418 17.905 17.905 0 0 1-2.14 6.825c-.444.605-.565.646-1.252.646a1.33 1.33 0 0 1-1.211-.485c-.888-.848-.888-2.14-.202-8.278l.364-3.19a11.24 11.24 0 0 0-1.131 1.05c-2.302 2.261-4.967 2.665-6.098.888-.686-1.049-.403-2.14.929-3.432a31.181 31.181 0 0 0 1.938-2.705h.162Zm13.124 11.508c.136-4.22.773-8.408 1.898-12.478.605-1.776 1.13-2.382 2.22-2.382 1.091 0 .808 0 1.131.485.323.484.364.484.485.242a3.794 3.794 0 0 1 3.351-2.585c2.625 0 3.836 3.271 3.15 8.4a17.41 17.41 0 0 1-4.886 10.62c-1.333 1.332-1.454 1.453-2.342 1.655a3.349 3.349 0 0 1-3.473-1.009 5.131 5.131 0 0 1-1.696-2.948h.162Zm5.007-5.007c.03-.8.297-1.573.767-2.221l.808-1.413v.484a13.913 13.913 0 0 1-1.212 3.594l-.282.444-.081-.888Zm9.247-2.544c.444-1.454.969-3.15 1.131-3.796.282-1.373.848-2.059 1.776-2.302a2.27 2.27 0 0 1 2.141.687l.282.444.727-.727c1.696-1.696 3.311-2.221 4.684-1.453 1.373.767 2.221 3.715 1.171 9.004a26.405 26.405 0 0 1-4.038 9.853c-1.776 2.948-2.301 3.473-3.634 4.038a3.184 3.184 0 0 1-3.487-1.132 3.2 3.2 0 0 1-.551-1.169 24.221 24.221 0 0 1-1.09-9.49c.156-1.333.399-2.655.726-3.957h.162Zm4.644 4.401v-2.705a4.05 4.05 0 0 1 .484-1.858c.233-.137.449-.3.646-.484l.364-.404v.525a39.31 39.31 0 0 1-1.656 4.926h.162Z" clip-rule="evenodd"/></svg>